{
    "asset" : {
        "generator" : "Khronos glTF Blender I/O v3.2.43",
        "version" : "2.0"
    },
    "scene" : 0,
    "scenes" : [
        {
            "name" : "Scene",
            "nodes" : [
                0
            ]
        }
    ],
    "nodes" : [
        {
            "mesh" : 0,
            "name" : "TQ_ARD-node"
        }
    ],
    "materials" : [
        {
            "doubleSided" : true,
            "name" : "TQ_ARD_front",
            "pbrMetallicRoughness" : {
                "baseColorTexture" : {
                    "index" : 0
                },
                "metallicFactor" : 0,
                "roughnessFactor" : 0.5
            }
        },
        {
            "doubleSided" : true,
            "name" : "TQ_ARD_back",
            "pbrMetallicRoughness" : {
                "baseColorFactor" : [
                    0.996078372001648,
                    0.9019607901573181,
                    0.6627451181411743,
                    1
                ],
                "metallicFactor" : 0,
                "roughnessFactor" : 0.5
            }
        },
        {
            "doubleSided" : true,
            "name" : "TQ_ARD_edge",
            "pbrMetallicRoughness" : {
                "baseColorTexture" : {
                    "index" : 1
                },
                "metallicFactor" : 0,
                "roughnessFactor" : 0.5
            }
        }
    ],
    "meshes" : [
        {
            "name" : "TQ_ARD-geom",
            "primitives" : [
                {
                    "attributes" : {
                        "POSITION" : 0,
                        "NORMAL" : 1,
                        "TEXCOORD_0" : 2
                    },
                    "indices" : 3,
                    "material" : 0
                },
                {
                    "attributes" : {
                        "POSITION" : 4,
                        "NORMAL" : 5,
                        "TEXCOORD_0" : 6
                    },
                    "indices" : 7,
                    "material" : 1
                },
                {
                    "attributes" : {
                        "POSITION" : 8,
                        "NORMAL" : 9,
                        "TEXCOORD_0" : 10
                    },
                    "indices" : 11,
                    "material" : 2
                }
            ]
        }
    ],
    "textures" : [
        {
            "sampler" : 0,
            "source" : 0
        },
        {
            "sampler" : 0,
            "source" : 1
        }
    ],
    "images" : [
        {
            "bufferView" : 4,
            "mimeType" : "image/png",
            "name" : "AAABBB"
        },
        {
            "bufferView" : 13,
            "mimeType" : "image/png",
            "name" : "TQ_ARD-I1"
        }
    ],
    "accessors" : [
        {
            "bufferView" : 0,
            "componentType" : 5126,
            "count" : 1788,
            "max" : [
                0.1320991814136505,
                0.08859722316265106,
                0.17630553245544434
            ],
            "min" : [
                -0.1510755568742752,
                -0.0675775334239006,
                -0.17586901783943176
            ],
            "type" : "VEC3"
        },
        {
            "bufferView" : 1,
            "componentType" : 5126,
            "count" : 1788,
            "type" : "VEC3"
        },
        {
            "bufferView" : 2,
            "componentType" : 5126,
            "count" : 1788,
            "type" : "VEC2"
        },
        {
            "bufferView" : 3,
            "componentType" : 5123,
            "count" : 3252,
            "type" : "SCALAR"
        },
        {
            "bufferView" : 5,
            "componentType" : 5126,
            "count" : 1481,
            "max" : [
                0.13020169734954834,
                0.08703634142875671,
                0.17425307631492615
            ],
            "min" : [
                -0.15098735690116882,
                -0.06749290227890015,
                -0.1738165318965912
            ],
            "type" : "VEC3"
        },
        {
            "bufferView" : 6,
            "componentType" : 5126,
            "count" : 1481,
            "type" : "VEC3"
        },
        {
            "bufferView" : 7,
            "componentType" : 5126,
            "count" : 1481,
            "type" : "VEC2"
        },
        {
            "bufferView" : 8,
            "componentType" : 5123,
            "count" : 3252,
            "type" : "SCALAR"
        },
        {
            "bufferView" : 9,
            "componentType" : 5126,
            "count" : 2445,
            "max" : [
                0.1320991814136505,
                0.08859722316265106,
                0.17630553245544434
            ],
            "min" : [
                -0.15107552707195282,
                -0.0675775334239006,
                -0.17586901783943176
            ],
            "type" : "VEC3"
        },
        {
            "bufferView" : 10,
            "componentType" : 5126,
            "count" : 2445,
            "type" : "VEC3"
        },
        {
            "bufferView" : 11,
            "componentType" : 5126,
            "count" : 2445,
            "type" : "VEC2"
        },
        {
            "bufferView" : 12,
            "componentType" : 5123,
            "count" : 3774,
            "type" : "SCALAR"
        }
    ],
    "bufferViews" : [
        {
            "buffer" : 0,
            "byteLength" : 21456,
            "byteOffset" : 0
        },
        {
            "buffer" : 0,
            "byteLength" : 21456,
            "byteOffset" : 21456
        },
        {
            "buffer" : 0,
            "byteLength" : 14304,
            "byteOffset" : 42912
        },
        {
            "buffer" : 0,
            "byteLength" : 6504,
            "byteOffset" : 57216
        },
        {
            "buffer" : 0,
            "byteLength" : 2175945,
            "byteOffset" : 63720
        },
        {
            "buffer" : 0,
            "byteLength" : 17772,
            "byteOffset" : 2239668
        },
        {
            "buffer" : 0,
            "byteLength" : 17772,
            "byteOffset" : 2257440
        },
        {
            "buffer" : 0,
            "byteLength" : 11848,
            "byteOffset" : 2275212
        },
        {
            "buffer" : 0,
            "byteLength" : 6504,
            "byteOffset" : 2287060
        },
        {
            "buffer" : 0,
            "byteLength" : 29340,
            "byteOffset" : 2293564
        },
        {
            "buffer" : 0,
            "byteLength" : 29340,
            "byteOffset" : 2322904
        },
        {
            "buffer" : 0,
            "byteLength" : 19560,
            "byteOffset" : 2352244
        },
        {
            "buffer" : 0,
            "byteLength" : 7548,
            "byteOffset" : 2371804
        },
        {
            "buffer" : 0,
            "byteLength" : 767,
            "byteOffset" : 2379352
        }
    ],
    "samplers" : [
        {
            "magFilter" : 9729,
            "minFilter" : 9987
        }
    ],
    "buffers" : [
        {
            "byteLength" : 2380120,
            "uri" : "data:application/octet-stream;base64,"
        }
    ]
}
